<svg id="visual" viewBox="0 0 900 600" width="900" height="600" xmlns="http://www.w3.org/2000/svg" xmlns:xlink="http://www.w3.org/1999/xlink" version="1.1"><rect x="0" y="0" width="900" height="600" fill="#ffffff"></rect><path d="M0 543L21.5 534C43 525 86 507 128.8 497C171.7 487 214.3 485 257.2 480.5C300 476 343 469 385.8 478C428.7 487 471.3 512 514.2 521C557 530 600 523 642.8 512.8C685.7 502.7 728.3 489.3 771.2 484.8C814 480.3 857 484.7 878.5 486.8L900 489L900 601L878.5 601C857 601 814 601 771.2 601C728.3 601 685.7 601 642.8 601C600 601 557 601 514.2 601C471.3 601 428.7 601 385.8 601C343 601 300 601 257.2 601C214.3 601 171.7 601 128.8 601C86 601 43 601 21.5 601L0 601Z" fill="#34653d" stroke-linecap="round" stroke-linejoin="miter"></path></svg>