<svg id="visual" viewBox="0 0 900 600" width="900" height="600" xmlns="http://www.w3.org/2000/svg" xmlns:xlink="http://www.w3.org/1999/xlink" version="1.1"><rect x="0" y="0" width="900" height="600" fill="#ffffff"></rect><defs><linearGradient id="grad1_0" x1="33.3%" y1="0%" x2="100%" y2="100%"><stop offset="20%" stop-color="#ffffff" stop-opacity="1"></stop><stop offset="80%" stop-color="#ffffff" stop-opacity="1"></stop></linearGradient></defs><defs><linearGradient id="grad2_0" x1="0%" y1="0%" x2="66.7%" y2="100%"><stop offset="20%" stop-color="#ffffff" stop-opacity="1"></stop><stop offset="80%" stop-color="#ffffff" stop-opacity="1"></stop></linearGradient></defs><g transform="translate(900, 0)"><path d="M0 351.5C-37.4 345.6 -74.8 339.7 -105.1 323.4C-135.3 307 -158.5 280.1 -189.9 261.3C-221.2 242.5 -260.8 231.7 -284.4 206.6C-308 181.6 -315.8 142.2 -324.3 105.4C-332.8 68.6 -342.2 34.3 -351.5 0L0 0Z" fill="#34653d"></path></g><g transform="translate(0, 600)"><path d="M0 -351.5C32.8 -337.5 65.6 -323.5 102.3 -314.8C139 -306.1 179.5 -302.7 204 -280.7C228.4 -258.8 236.8 -218.2 258.9 -188.1C280.9 -158 316.6 -138.2 334.3 -108.6C352.1 -79 351.8 -39.5 351.5 0L0 0Z" fill="#34653d"></path></g></svg>