<svg id="visual" viewBox="0 0 900 900" width="900" height="900" xmlns="http://www.w3.org/2000/svg" xmlns:xlink="http://www.w3.org/1999/xlink" version="1.1"><rect x="0" y="0" width="900" height="900" fill="#ffffff"></rect><path d="M0 128L21.5 150.2C43 172.3 86 216.7 128.8 222.2C171.7 227.7 214.3 194.3 257.2 175.5C300 156.7 343 152.3 385.8 153.5C428.7 154.7 471.3 161.3 514.2 182.7C557 204 600 240 642.8 246.2C685.7 252.3 728.3 228.7 771.2 202C814 175.3 857 145.7 878.5 130.8L900 116L900 0L878.5 0C857 0 814 0 771.2 0C728.3 0 685.7 0 642.8 0C600 0 557 0 514.2 0C471.3 0 428.7 0 385.8 0C343 0 300 0 257.2 0C214.3 0 171.7 0 128.8 0C86 0 43 0 21.5 0L0 0Z" fill="#34653d" stroke-linecap="round" stroke-linejoin="miter"></path></svg>